/* XPM */
static char *d2FsbC1maW5hbDIu[] = {
/* columns rows colors chars-per-pixel */
"50 50 253 2 ",
"   c #323814",
".  c #3B4909",
"X  c #3F4229",
"o  c #4A5503",
"O  c #555C04",
"+  c #565B18",
"@  c #454815",
"#  c #695C13",
"$  c #596605",
"%  c #5C6516",
"&  c #597508",
"*  c #626C0A",
"=  c #677507",
"-  c #636B15",
";  c #697314",
":  c #687618",
">  c #747A1C",
",  c #737C08",
"<  c #585727",
"1  c #55502E",
"2  c #615A2E",
"3  c #5A6326",
"4  c #5B662F",
"5  c #666B27",
"6  c #6B7427",
"7  c #747C23",
"8  c #767A2A",
"9  c #686935",
"0  c #6E7438",
"q  c #757B32",
"w  c #787939",
"e  c #7C6D34",
"r  c #7B7C43",
"t  c #7C7D4B",
"y  c #757648",
"u  c #686756",
"i  c #797757",
"p  c #6E6D4D",
"a  c #7B7B66",
"s  c #887B13",
"d  c #857530",
"f  c #827D4B",
"g  c #857B50",
"h  c #867C73",
"j  c #5B8A00",
"k  c #6A8604",
"l  c #768708",
"z  c #6D9101",
"x  c #778519",
"c  c #779819",
"v  c #758C0F",
"b  c #7AA614",
"n  c #76A306",
"m  c #798627",
"M  c #7B9627",
"N  c #7A8636",
"B  c #6B8C2D",
"V  c #7B8545",
"C  c #7D8758",
"Z  c #889A19",
"A  c #869111",
"S  c #88A817",
"D  c #95AB1B",
"F  c #8CB91B",
"G  c #99B319",
"H  c #8CB006",
"J  c #A1BD0E",
"K  c #838B2B",
"L  c #889826",
"P  c #858B3A",
"I  c #8D953D",
"U  c #899637",
"Y  c #919838",
"T  c #969230",
"R  c #88A428",
"E  c #96A72A",
"W  c #8CB729",
"Q  c #99B627",
"!  c #97A738",
"~  c #97B836",
"^  c #8BA53C",
"/  c #A5BB28",
"(  c #A4B637",
")  c #94C206",
"_  c #A4C406",
"`  c #B2D016",
"'  c #99C634",
"]  c #AAC429",
"[  c #B2CA29",
"{  c #A5C837",
"}  c #ACD535",
"|  c #B5E53B",
" . c #83844C",
".. c #8B8D4C",
"X. c #868947",
"o. c #8B9443",
"O. c #8D934B",
"+. c #889845",
"@. c #949948",
"#. c #878858",
"$. c #938C57",
"%. c #8D9253",
"&. c #8C9557",
"*. c #959B5C",
"=. c #979858",
"-. c #968A4B",
";. c #9BA64B",
":. c #9AA459",
">. c #99B14A",
",. c #A1A94C",
"<. c #A7B746",
"1. c #A3A858",
"2. c #ADB957",
"3. c #8A8866",
"4. c #928A67",
"5. c #939463",
"6. c #9B9D64",
"7. c #9C9B6C",
"8. c #969668",
"9. c #948B75",
"0. c #9A9876",
"q. c #8B8D6E",
"w. c #A39866",
"e. c #A49B78",
"r. c #9DA466",
"t. c #9DA275",
"y. c #A4A36A",
"u. c #A6A967",
"i. c #A9B367",
"p. c #B3B968",
"a. c #ABAB7C",
"s. c #A6A777",
"d. c #ADB677",
"f. c #B5B678",
"g. c #B3A970",
"h. c #C5B577",
"j. c #B2CC46",
"k. c #B5DA4A",
"l. c #AACB4E",
"z. c #B9E24E",
"x. c #B9C76C",
"c. c #B5CA70",
"v. c #C6E358",
"b. c #C5C974",
"n. c #9B9987",
"m. c #928B8C",
"M. c #A39A89",
"N. c #A69D97",
"B. c #A08F99",
"V. c #9FA786",
"C. c #A9A886",
"Z. c #B1AC89",
"A. c #AFB386",
"S. c #B4B384",
"D. c #B4B48B",
"F. c #B9BA87",
"G. c #AAA596",
"H. c #B4AA98",
"J. c #B4B293",
"K. c #BBBB94",
"L. c #B9B49B",
"P. c #BCBA9C",
"I. c #B8B694",
"U. c #ABB592",
"Y. c #AD9DA5",
"T. c #B6AAAB",
"R. c #BAB8A7",
"E. c #B5ADAE",
"W. c #C2BB98",
"Q. c #C0BA88",
"!. c #C2BCAB",
"~. c #C3BBA3",
"^. c #C6BBB7",
"/. c #D2BEBD",
"(. c #BCC38B",
"). c #BDC392",
"_. c #BEC0AB",
"`. c #C4C68A",
"'. c #C9D28A",
"]. c #C3C29D",
"[. c #C8C996",
"{. c #D3D29A",
"}. c #C4C3A3",
"|. c #C6C3AB",
" X c #CAC4AD",
".X c #CDCBAC",
"XX c #C9C8A4",
"oX c #D2CCAC",
"OX c #CED1A7",
"+X c #D8D7A9",
"@X c #CBC6B7",
"#X c #D2CCBC",
"$X c #D4CBB7",
"%X c #DBD5BB",
"&X c #DDDBBC",
"*X c #D8D6B5",
"=X c #E2DBBB",
"-X c #E4E5B9",
";X c #EBEAB7",
":X c #E3E79A",
">X c #BBB7C3",
",X c #C8BBC2",
"<X c #CCC5C7",
"1X c #D5CCC3",
"2X c #D6CBC9",
"3X c #DDD5C3",
"4X c #DDD3CC",
"5X c #D8D5C4",
"6X c #D6C9D3",
"7X c #DCD3D4",
"8X c #DDD6D7",
"9X c #E2DBC4",
"0X c #E3DCCC",
"qX c #E3D6C8",
"wX c #E5DCD3",
"eX c #EADDD5",
"rX c #E5DBDB",
"tX c #EBDCDC",
"yX c #E2D5D5",
"uX c #E0CCD8",
"iX c #DDE9C9",
"pX c #EAE4CD",
"aX c #E8E5C6",
"sX c #F2EBC8",
"dX c #ECE4D4",
"fX c #ECE3DC",
"gX c #EBE7D6",
"hX c #F3EDD4",
"jX c #F3EBDD",
"kX c #F0E4D8",
"lX c #FCF5D7",
"zX c #EEF1C6",
"xX c #DBCFE7",
"cX c #E5DAE2",
"vX c #E8DBE8",
"bX c #E9DBF5",
"nX c #EAD5EF",
"mX c #EDE3E3",
"MX c #EDE3EC",
"NX c #EDEAE4",
"BX c #F4EBE4",
"VX c #F4EBEB",
"CX c #F5E8E8",
"ZX c #FFFBEC",
"AX c #FCF5E5",
"SX c #F4EAF3",
"DX c #F6EBFC",
"FX c #F7E9F8",
"GX c #FDF3F3",
"HX c #FFFDF5",
"JX c #FEF4FC",
"KX c #FFFBFE",
"LX c #EEE8EF",
/* pixels */
"3 $ j S z l s e O 9 > k * % & : 7 * = 7 m = L &.#.=.K %.8.g * A b S b b ' b W ' } ) V M = m > f o.$ ",
"5 +.^ j.l.2.=.u.t %.g.D.a.s.K.$X0.6.[.oX.X=.d.5X&XjXvX2XF.1.d g.b ' z.} ' b ' k.B F c.8. .2XqX-X:.- ",
"* +X).B B _.W.g.3.E D.xXyX%XcXMX@XL.BXcXvXe.Z.KXNXiX).y.w.w.* A b b ) ' l.l.k.z.z.H i.r.u.GX9XoXu.: ",
"7 qX4X:.N N.G.,.2.D O.E.yXhXjXhXoX7.oXT.qX$.8.CXiXi.U d w.F.: E l.j j ' z.z.v.v.z.H ).).T [.J.7Xd.- ",
"K <XvX).C m.n.^ H m 0 u.1XrX+X[.`.%.XX|.AXw.$.qXd.5.0.e.g.s.p E.c.b n ' k.k.z.v.' ' iX_.6 _.,XDXd.6 ",
"x K.1XD.i N.G.I = p i $.N.Y.t.6.(.r.*X6XMX0.g ^.o.P ,.i.w.3.X C &.M W F l.k.v.k.k.) c.(.&.LX5XjX(.6 ",
"Z ! u.=X=X^.M.e.I *.g g i g :.>.i.@.F.E.E.p y N.-.Y S Q :.q.4 q 9 B W z ' ' l.W W ) >.c.+.0X&XAX).6 ",
"_ [ E g.%XtXT.T.r T w.9.P L R S c z U V.0.5 q g d -.y B B &.y h y X.l.z ' b ' b c z._.V.V dXcXbXA.5 ",
"_ [ E N %.6.V 9 9 = D M M c k R # s T f s 8 2 , N o @ @ < 3.% 3 @   $ { B ' H ) c M N 8 : K U P V & ",
"] R N 7.].].C.0.9 y i.~ ~ >.V c 1 # d t d > 5 c 0.V h 0.I.U.= ^ n.#.V B j ' c n M B 5 r  .=.a.D.r.& ",
"E o.0.#XVXBXfXtXC n._.N b 2.c.C u 2 q.0.o.6 6 W q.r.E.#XZXrXw K.GXu.C X & >.B W U :.W.pXkX0XmXJX).m ",
"5 t.#X8XcXmXGXGXr.t.@XV.V >.).>Xg h G.n.3.3 % &.:.'.NXwXGXSXi U.4XC.V.X . & B l.V U.eXCXyXtXCXFXOXm ",
"4 [.AXvX2X7XtXmX&.#.1XMX&Xx.OXxXX.M.$XG.M.p g ~. X+XJXCXfXdX> o.~.,X2X2 @ o Y $.U.#XVXCXeXkXkX1X|.N ",
"V OXZXNXfXwXeXGX! t.LXAXlX3X.XA.T K.qXW./.9.0.CX(.w.yXjXkX0Xm :.pXbXkXt 4 o ;.N.|.0XJXGXwX%X%X$X_.q ",
"w .XdXyXNXeX4XFX;.}.VX4X%XoXx./ x Z./.Z.fX7. .rX,.U $XeXfXvXf Z.fXcXAX&.5 . r <X*XlXKXtX^.3XAXHX_.N ",
"V sXZXyXVXmX2XFXC.a.=XuX,Xw.D ` v G.^.R.HXs.8 5XS.F.SXyXtXBX7 1.FXhXAX#.( <.i m.d.=XCX<X^.GXKXxX_.N ",
"m s.W.u...Z.e.h.> - O.V O.E G ` Y x r.>.s.> q ; I x r.5.>.L q ; 1.s.x.v m <.$ K S A y.@.3.5.1.,.I & ",
"- a.H.6.6.0.i w.w r XX_.K.2.! Q [ Z 0.C.C.I s.+X .m &.p : o.0.:.0.p 6 > r.i.m 9 6.U a o #.7.w.0.N O ",
"7 OX@XW.;XjX~.lX7.C.HXNXgX.Xi.o._ Q >XNXMX[.!.SX).`.*XK.O.OXBX0X4X6X5.6.ZX$XW.8XvX-XR.: +XaX3XxX:.- ",
"P 5X/.L.9XAX/.=XP.!.GXMXLXNX XM.H Q #X*XFX=X^.,XR.`.*X#X%.&XDX8X4XMXw.-.mXE.@XGXR.'.R.* =XpX7XxXd.m ",
"o.aXcX|.~.yX1X XI.L.fX7XMXGXtX@XO.Y '.@.0XsXcX/.Z.u.K. XV =XKXVX3X!.u.P ^.#XsXXX! / a.> wXBXkX2Xi.6 ",
"q &XGXfXL.2XeXoXZ.K.AXrXCXVXCXeXT.u.:XE hXAXJX=Xs.=.J.@X%.*XVXpXJ.}.2.q %XpXb.@._ J =.6 4XVX0XL.r.- ",
"o.aXJXAXoX/.1X{.Z.D.hX0XtXmXtXtX Xy.aXu.2X9XvXkXD.F.wXVXS.=X0X[.U.AXi.r GX0XZ D [ ` =.6 4XAXoXH.A.6 ",
"m I.E. XL.H.G.a.0.q. XR.2XtXvXmX(.5.DXfXFX%X6XFXD.[.VXnXe.W.~.=._.KX8.#.JXaXL J / ] 4.6 5XBX!.@X(.6 ",
"= * O ; x % $ $ o + % $ Z ;.P ..r w Y.J.I.~.`.M.P a.OX-X5.A.!.2X-XrXa.m Z.@XW.%.S j.x 6 =X~.H.pXA.k ",
"N I.|.(.F.R.|.).x V 0.5.q  .4.X.$ O r > m ; $ > = * 7 7 O = K m y t $ o y e > < H Q M 6 F.!.#XCXU.: ",
"0.fXGXgXgXbXDXcXU _.MX2X1XyX3XzXo.I $X].{.7.; F.[.A.D.a.=.=.g.a.^.D.>  .<XK.'.R.G S ! P e.<XcXDXa.; ",
"6.qXfXaXhXvXvXdXN XX8X_.4XSXyXlX9.q.JXvXmXE.p 3XHXMXnXSX7X4XyXmXMX0X .5.FXmXlX6XE E x...C.eXvXJXt.& ",
" .3XNXaXhXyXtXlX@.t.|.f.f.dXGXrX#.$.KXpXoXH.P +X{.W.R.tXyXjX3XuX+XhXO.K aXjXzXa.=.u.+X&.K.hX%XeXs.* ",
"#.NXDX7XmXSXdX{.m 5.s.Y @..XtXCXo.O.ZX&XQ.S.m u.p.[.}.lX0XhX$XtX*XcX#.> -XFXpXS.L.oX=X4.F.*XZ.~.C.- ",
"*.NXbX6XVXNX`.;.L `.].r.h.%X<XZX..y.SX@X%X Xq w.W.0XCXJXtXuXuXCXJXvX3.t SXSXqX1X@X3X=X3.s.].L._.U.x ",
"^ aXNXgXAXOX;.J Q d.5X#X@XMXSXjX..u.,Xn.*X.Xm i.pXCXFXFXCXsXkXjXVX*X@.=.yXC.@.~.^.!.~.g 3.R.4XNX).: ",
"N a.K.).i.L E j.1.%.XX&X.X#X#X8X..%..XOXMX}.x <XjX7XDXnXqXqXCXDXCXnXg a _._.S M ^ V.,Xa 8.R.cX<Xu.m ",
"o ; + + o $ = , G = * : 7 U B - - l =.=.f.U l B >.:.$.$.@.x Y Y o.0 o 5 +.4 ~ B L B N $ 6 3.C B q % ",
"$ :.C.C.R.P.A.9.= I d.6...O.*.(.O.l r w ! ( ` A v K $.#.=.m - 5 5 - o . M . M R E L l = o 2 < * 4 o ",
"*.aXLXvXLXJXDXvX3.1XSXcX8X2X8XKXn.Y ZX@X,.( ] ] ( p.zX|.#X.Xi n.B.g $.  Z U B Z O.6.1.K w M.G.Q.&.B ",
"&.sXgX#X4XpXhXgX8.%XrXyXNXgXdXBXN.P KX8Xp.! / { E x.;Xt.r.i.- 6.Y.d e.9 , ! O.A  .q.n.&.1.J.T.N.V % ",
"9.fXMXcXZXAX0X1Xf .XdXjXAXaX9XdXG.m G.L.`.,.} Q e.pX0XF.>.R , L d s e L T Z $.-.-.i q.N L o.3.9.B j ",
"N.mXnXxXDXMXuXvX0.#XcXJXKXwX7X6X8.o.%X=XsXo.G Y E.FX<XXX1.K > w d o.9 S ,.c  .N.w.4...L c ;.7.`.>.~ ",
"..+X%X3XlX0X%XmX=.*XjXAXdX@XfXHX7.#.VX1XFXJ.R U.*X%XW.g.Y P 2 h 9.u a c y >.8.m.H.Z.+.b c (.t.:.' S ",
"t ^.4XoXtXeX=XFX$.%XGXDXnX<XJXFXp.0 pXmXGXG.n.pX<XG.!.H.g #.1 p 2 u M.1 t 5.9.R.H.W.s.y.5 g.-.h.&.m ",
"$ t X.-.e.w.1.e., ;.u.y.1.o.1.1.Y o.Q.&X%XS.t +X+.U @.q X.X.+ 9 g q.C.1 i C.C.H.,X8X5XH.i H./.qX+.M ",
"$ q P Y X.6 ; g - e 7.7.g.u.g.f.;.w < y 0 q + w R { E $ 7 . . 4 9 0 w - $ > 5 w C V V N + 5 O. .m L ",
"P ).oX+XqXoX`.kXM.T.KXCXVXGXbXJX`.t w.F.f.y.Q.f x 2.@.5 e @ u m.r 6.u.p.> K I u.N U m m = U p.P x Z ",
" .6XR.^.nXGXoXvXS.].ZX4X0XVXvXDXC.3.wXBX&XC.%X9.o X.X.#.3.i 0.U.T.SXGX4X3.&XhXcXtXAXoXs.2 M.3XN.M L ",
"X.BX#XR.<XeXW.2Xg.`.AXyXBXHXmX8X=.J.fXSXrXY.G.h + P %.6.#.0 r.F.nXJXVX#Xp &XGXSXJX6XM.9.1 a h m.L E ",
"8 aXhX&XE.qX+XeXS.!.SXMXGXgXJ.4.; y.5XcXcX4XG.i # -.w.#.s.g a.sXHX9XzX+XX.+XaXVX%Xg 8 Y Y U o.i.~ G ",
"%.8XHXZX^.yXoX^.S.W.vXcXeX`.@.A / 2.zX@XH.@X*X8.d w.e.3.kXN.!.ZX2X@XBX&Xi aXrXnXd.o.! v S S D ~ ] / ",
"5.).*X*X XR.H.P.*.C.4X|.(.~ Q { { y.3X3X#X@XR.g.8 %.0.}.OXs.a.OX XmXwXS.7.R..Xi.S G G G ] ] / [ / / ",
"$ B P N N q 8 N > 0 0.3.@.R G [ H P Z.Z.Z.0.$.d O e w 5.*.6 5 ..N &.=.> ; P +.Z S G Q G ] [ / [ ] / "
};
