/* XPM */
static char *_80005771fb24a9bd329ee62cf1a1043gjTP4saXT3ck76oE[] = {
/* columns rows colors chars-per-pixel */
"50 50 213 2 ",
"   c #163736",
".  c #253934",
"X  c #443E19",
"o  c #4C1837",
"O  c #581938",
"+  c #512D3C",
"@  c #7A3D3F",
"#  c #27452A",
"$  c #37592D",
"%  c #4E6A16",
"&  c #59761B",
"*  c #6A6C1E",
"=  c #6A7A1B",
"-  c #70791E",
";  c #574924",
":  c #6F5333",
">  c #765435",
",  c #506E2A",
"<  c #577C25",
"1  c #6C6723",
"2  c #726328",
"3  c #6E7726",
"4  c #737B2A",
"5  c #79653E",
"6  c #757337",
"7  c #11384B",
"8  c #0D3D5B",
"9  c #123D55",
"0  c #313A54",
"q  c #751C49",
"w  c #5A3650",
"e  c #76354B",
"r  c #622E56",
"t  c #782250",
"y  c #6F3966",
"u  c #1C4B4F",
"i  c #184559",
"p  c #2E4551",
"a  c #27475A",
"s  c #225554",
"d  c #33674D",
"f  c #0F4569",
"g  c #154A67",
"h  c #19556A",
"j  c #174F70",
"k  c #1A5373",
"l  c #195478",
"z  c #2E536A",
"x  c #346377",
"c  c #734641",
"v  c #6F5252",
"b  c #4D7840",
"n  c #7B6B42",
"m  c #756656",
"M  c #445D61",
"N  c #4D6873",
"B  c #63666B",
"V  c #6E7477",
"C  c #831E50",
"Z  c #873B4A",
"A  c #842453",
"S  c #95265C",
"D  c #873557",
"F  c #963759",
"G  c #9E2762",
"H  c #9A3965",
"J  c #A72B68",
"K  c #A6366D",
"L  c #BB2C73",
"P  c #AC3371",
"I  c #BD3A7C",
"U  c #C22C78",
"Y  c #CC2E7D",
"T  c #C7327D",
"R  c #8A485C",
"E  c #914F5B",
"W  c #875E57",
"Q  c #86704C",
"!  c #886453",
"~  c #964566",
"^  c #925169",
"/  c #A8556F",
"(  c #926D6D",
")  c #8F796C",
"_  c #A96279",
"`  c #A47476",
"'  c #5E831D",
"]  c #688819",
"[  c #728918",
"{  c #6D921A",
"}  c #759415",
"|  c #799B16",
" . c #749319",
".. c #7B9B1A",
"X. c #7EA315",
"o. c #7DA31B",
"O. c #5E8521",
"+. c #648B23",
"@. c #79882C",
"#. c #6C9423",
"$. c #779A23",
"%. c #508E52",
"&. c #819219",
"*. c #81A816",
"=. c #85AC14",
"-. c #88AF14",
";. c #87B114",
":. c #8BB316",
">. c #8DB817",
",. c #8DB51B",
"<. c #8EB918",
"1. c #93B417",
"2. c #91B61D",
"3. c #A5B01E",
"4. c #849928",
"5. c #94B926",
"6. c #96BA2A",
"7. c #9CBE35",
"8. c #B6AB22",
"9. c #A1BF3C",
"0. c #CCAC33",
"q. c #A0C13E",
"w. c #949253",
"e. c #9C9569",
"r. c #898378",
"t. c #A78D6D",
"y. c #AB867D",
"u. c #A3C143",
"i. c #A9C44B",
"p. c #AEC857",
"a. c #B3C85B",
"s. c #BACB67",
"d. c #C7CF77",
"f. c #C5D278",
"g. c #1B5B81",
"h. c #345C83",
"j. c #146687",
"k. c #106D90",
"l. c #1A7596",
"z. c #347089",
"x. c #187CA4",
"c. c #595F86",
"v. c #477689",
"b. c #557D8D",
"n. c #516F91",
"m. c #687E87",
"M. c #CB3983",
"N. c #D33885",
"B. c #D33A86",
"V. c #B44E81",
"C. c #AA5C88",
"Z. c #85709E",
"A. c #BA688B",
"S. c #CA488A",
"D. c #D7448D",
"F. c #DB4791",
"G. c #D55796",
"H. c #E34C98",
"J. c #E4529B",
"K. c #E9549E",
"L. c #D5619C",
"P. c #EA56A1",
"I. c #E65AA4",
"U. c #ED5BA6",
"Y. c #EE5DA9",
"T. c #F05CA7",
"R. c #DA6AA2",
"E. c #C67BB1",
"W. c #E666A8",
"Q. c #F162AB",
"!. c #F36CB1",
"~. c #EC71B0",
"^. c #F175B5",
"/. c #248AA6",
"(. c #6C828B",
"). c #688590",
"_. c #768B94",
"`. c #6A9AAC",
"'. c #2396C3",
"]. c #9E8C83",
"[. c #8D9497",
"{. c #9D9796",
"}. c #B58D8A",
"|. c #B5A199",
" X c #919FA4",
".X c #91A5AE",
"XX c #ACACAC",
"oX c #B2AEAC",
"OX c #C69E8C",
"+X c #C9A18C",
"@X c #C3A599",
"#X c #DAB19E",
"$X c #E0B09E",
"%X c #EE83B4",
"&X c #D2B7AB",
"*X c #E7B9A6",
"=X c #E4BFB3",
"-X c #CFD589",
";X c #EBD398",
":X c #D2C0B8",
">X c #F6C2AD",
",X c #E6C6B9",
"<X c #F6C7B4",
"1X c #FF85C2",
"2X c #F6B8C2",
"3X c #B9C0C3",
"4X c #E9CDC3",
"5X c #FBCAC6",
"6X c #FED5C5",
"7X c #FAD4C9",
"8X c #FEDBCC",
"9X c #FFDFD1",
"0X c #D9E4E7",
/* pixels */
":.:.:.:.:.:.:.:.=.:.:.:.:.:.:.-.:.:.:.=.:.:.:.:.,.:.:.:.:.:.:.1.:.:.:.:.a.-X5.:.:.:.:.:.:.:.:.:.:.:.",
":.:.:.:.:.:.:.:.:.:.:.:.:.:.:.:.:.:.:.=.-.:.:.:.:.:.:.:.:.:.:.:.:.:.:.:.,.2.:.>.:.:.:.:.:.:.:.:.:.:.",
":.:.:.:.:.:.:.:.:.:.:.:.:.:.:.:.:.<.<.:.:.:.:.:.-.:.:.-.:.:.:.:.:.:.:.:.:.;.:.<.:.:.:.:.:.:.:.:.:.:.",
":.:.:.:.,.:.:.:.:.:.:.:.:.:.:.:.:.:.:.:.:.:.:.:.:.:.:.=.-.:.:.:.:.:.:.:.:.:.:.:.:.:.:.:.:.:.:.:.,.:.",
":.:.:.:.:.:.:.:.:.:.:.:.:.:.:.:.:.:.:.:.:.:.:.:.:.:.:.-.=.-.,.:.<.:.:.:.:.:.:.:.:.:.:.:.:.:.:.:.:.:.",
":.:.:.:.:.:.:.:.:.:.:.:.>.:.:.:.:.:.:.:.:.:.,.<.:.:.:.:.-.:.:.:.:.:.:.:.:.:.:.:.:.>.:.:.:.:.:.:.:.:.",
":.:.:.:.:.:.:.:.:.:.:.:.:.>.:.:.:.:.<.:.:.:.2.u.5.-.:.:.:.:.:.:.:.:.:.:.:.:.:.:.:.:.:.:.:.>.>.:.:.:.",
":.:.:.:.<.:.6.a.6.:.>.:.=.:.:.:.:.:.:.:.:.:.6.s.5.:.:.:.:.:.:.:.:.:.:.:.:.:.:.:.:.:.:.:.:.:.:.:.:.:.",
":.,.6.,.:.:.a.;Xs.,.;.,.:.:.=.=.;.:.=.:.:.:.;.=.=.=.;.:.:.:.:.:.:.1.:.:.>.:.:.:.:.:.:.:.:.-.:.:.-.:.",
";.9.s.,.:.:.u.;Xp.;.>.;...4 Q ! 6 } ;.;.} 3 5 W W ! n 4  .;.1.8.1.>.:.:.:.:.:.:.:.:.:.:.:.>.:.:.:.:.",
":.:.5.:.:.:.:.2.:.:.,.] E L.^.!.W._ - 1 R S.I.Y.U.Q.W.L._ n &.0.3.:.:.:.:.:.:.:.:.:.:.:.>.:.:.:.:.:.",
":.:.:.:.:.:.:.,.:.:.} Z J.Q.U.D.B.G.w r P.T.U.I.U.U.I.U.Y.~._ 4 -.:.=.-.:.:.:.=.=.:.:.:.:.:.:.:.:.:.",
":.:.:.:.:.-.-.-.:.:.1 I P.U.D.L C t z y I.U.U.Y.Y.U.U.U.T.U.!.A.4 :.=.:.:.:.:.:.-.:.:.:.>.:.>.>.:.,.",
":.:.:.:.,.=.-.-.:.>.: B.U.K.B.A O t w T U.U.U.U.I.U.Y.U.T.U.U.!.( | :.:.:.:.:.1.:.:.:.:.>.:.:.:.:.-.",
":.:.:.:.:.<.:.:.>.;.: M.U.K.T q L N.F.P.U.U.U.U.U.U.U.U.U.P.U.Y.R.4 :.:.:.:.:.:.:.:.:.:.:.>.:.:.:.:.",
":.:.-.:.:.:.:.:.:.>.2 T P.P.J S Y J.U.Y.U.U.U.U.U.J.J.U.U.Q.G.J.~.n ;.:.:.:.:.:.:.-.=.:.:.>.:.:.:.:.",
">.:.:.:.:.:.-.:.:.>.- J J.P.J S N.P.T.T.U.U.U.U.Y.V.T U.U.W.e F.!.Q ;.;.>.:.:.:.>.-.-.:.:.:.-.-.-.:.",
";.:.:.:.:.:.1.:.:.-.*.Z F.T.P S Y K.T.T.S.F.U.U.Y.H A M.M.K O M.S.6 ;.>.-.-.:.:.-.:.:.:.:.:.-.*.:.:.",
":.>.:.:.:.:.:.:.:.:.:.2 M.T.S.C Y H.K.P.I t D.M.P r w ^ ( ( W ~ e [ :.:.=.=.:.:.:.:.:.:.:.:.:.:.:.:.",
":.:.:.=.:.:.:.:.:.:.>.- P P.J.A L Y Y N.L O e w z x N [.=X<X{.N M +.<.:.>.>.:.:.:.:.:.:.:.:.:.:.:.:.",
":.:.-.=.:.:.>.:.:.:.:.} H K.T.J S L J J C R ].x B V (.).oXoXb._.p $ *.:.:.,.-.,.:.:.:.:.:.:.:.:.:.:.",
":.:.:.:.:.:.>.:.:.:.:.} S H.K.N.q R y.w o ( ).N 3X`.z _.b.v. X.X7   #.,.:.-.1.-.:.:.:.:.:.:.:.:.:.:.",
":.:.-.:.:.:.-.:.:.:.:.- S L H.H.D }.@Xv 0 z.h.`.0Xz.a ).n.m._..XN u $.:.:.:.-.,.-.=.-.:.:.:.:.2.:.:.",
":.:.:.:.-.-.0.3.>.-.-.= ; J K.H.D *X<Xv + OX|.).XXXX X). X|.N _.m.b :.:.:.:.:.:.:.=.-.:.:.:.:.:.:.:.",
":.:.:.:.:.1.0.8.:.:.:.;.2 T H.H.G ].$XR D $X>XXX).).).[.4X:X@X&X%.4.3.-.:.:.:.:.:.>.:.<.:.:.:.:.:.:.",
":.:.:.:.:.:.1.,.:.:.:.[ Z T N.N.U F c c ~ +X>X6X4X&X,X5X5X5X7X9X) 3 *.*.=.:.:.:.>.;.:.<.1.,.:.:.:.:.",
":.-.=.:.:.:.:.:.:.:.} @ U Y Y Y U G 1 - K ` >X<X4X9X9X7X2X2X5X4Xv > ; % ..:.:.:.,.6.,.:.:.:.:.:.:.:.",
":.:.-.:.:.:.>.:.:.-.* J Y Y Y L e X ..*.> H }.*X<X<X9X8X7X5X,Xe.| =.=.;.:.:.:.:.q.d.,.:.:.:.:.:.:.,.",
":.:.:.:.:.:.:.:.:.:.=.2 Z F Z 2 X.} ;.:.3 y + v ` }.}.}.t.w.@.*.:.:.:.=.*.,.s.q.<.6.:.:.:.:.:.:.:.:.",
":.:.:.:.:.:.:.:.:.:.-.:.=.| *.:.:.:.:.} / ^._ p C.G.^   { X.:.:.:.:.:.:.;.u.;Xd.2.:.:.:.:.:.:.:.:.:.",
":.;.<.>.:.:.:.:.:.:.:.:.;.>.:.:.>.>.*.Q %X%X^ c.E.1XE.w ] 1.:.:.:.:.:.:.:.5.f.i.-.=.:.:.:.:.:.:.:.:.",
":.>.;.:.:.:.:.=.-.:.:.:.;.>.:.>.>.>.4.#X4XE.0 h.n.Z.n.a 1 X.:.:.:.:.>.<.:.:.:.>.:.=.:.:.:.:.:.:.:.:.",
":.1.i.6.;.:.:.=.;.:.:.:.:.:.:.:.:.:.4.*X8Xr.7 i j j j a ].e.*.<.:.:.:.:.:.:.:.,.:.:.:.:.:.:.:.:.:.:.",
":.p.;Xs.2.:.:.:.:.:.:.:.:.:.:.:.:.<.4.#X9X=Xp 7 f l l i &X9Xe.@.=.:.:.:.:.:.:.:.:.:.:.:.:.:.:.:.:.:.",
":.q.-X6.:.:.>.>.:.:.:.:.=.:.:.:.:.<.*.+X7X7XB 9 i k k g |.<X].) n ..:.:.,.=.=.:.:.:.:.:.:.:.:.:.:.:.",
">.:.:.;.:.:.:.:.:.:.:.:.:.:.:.:.:.-.=.w.<X7X@Xg j j k g m OXv m m  .,.:.:.-.:.:.:.<.:.:.:.:.:.:.:.:.",
":.:.:.:.:.:.>.:.:.:.:.:.:.:.:.:.:.:.:.@.*X8X=Xp 8 k g.j % 6 m m +.:.:.:.:.:.:.:.:.,.:.:.:.:.:.:.:.:.",
":.:.:.:.:.>.:.:.:.:.:.>.:.:.:.:.:.:.:.o.t.) B a   9 l g.u #.w.4 =.,.:.:.:.:.:.:.:.:.:.:.:.-.=.:.:.:.",
":.:.:.:.:.:.:.:.:.:.:.:.:.:.:.:.:.:.:.:.& 7 l l < , f g.l #.,.:.:.:.:.:.:.:.:.:.:.:.:.:.:.-.-.:.:.:.",
":.:.:.:.:.:.:.:.:.:.:.,.=.:.:.:.:.:.:.>.& f g.l +.*.. j k #.:.:.:.<.:.:.:.:.:.:.:.:.:.:.:.:.:.:.:.:.",
":.:.:.:.:.:.;.:.:.:.:.:.*.:.:.7.5.:.:.1.% i j.s X.=.# f h { >.>.:.:.:.:.2.:.-.:.:.:.<.:.:.:.:.:.:.:.",
":.:.:.:.:.:.=.=.:.:.:.:.:.:.,.d.p.>.:.=.# 8 j +.,.X.# 8 u ] =.>.:.:.:.:.:.:.:.:.:.:.:.:.:.:.<.:.:.:.",
"=.>.:.:.:.:.:.:.:.:.:.:.:.:.:.6.2.=.>.' g f u ] >.X.s j.l O.>.>.:.:.:.:.:.:.:.:.:.:.:.:.:.:.<.:.:.:.",
"=.:.:.:.:.:.:.:.:.:.:.:.:.:.:.:.=.:.=.d x.'./.%.o.&.h /.'./.%.o.:.:.:.:.:.:.:.:.:.:.<.:.:.:.:.:.:.:.",
"-.:.:.>.:.:.:.:.:.:.:.:.:.:.:.:.:.:.X.s k.k.l.l.d } h k.l./.l., =.:.:.:.:.:.-.:.:.:.-.:.5.:.:.:.-.:.",
":.:.:.:.:.:.:.:.:.:.:.:.:.:.:.,.:.:.:.] ] ] ' ] } X.] ' ' +.O.{ :.:.:.:.:.:.:.,.:.,.-.6.-X9.:.:.:.:.",
":.:.:.:.:.X.-.:.:.:.:.:.:.<.>.>.:.:.:.,.:.=.-.>.>.>.>.;.-.:.1.:.:.:.:.:.:.:.:.:.:.:.:.,.a.6.:.:.:.:.",
":.:.:.:.:.:.:.:.:.:.:.:.:.:.:.:.:.:.:.:.:.:.:.:.>.;.>.;.:.:.:.:.:.:.:.:.:.,.-.:.:.:.:.:.:.:.:.:.:.:.",
">.=.=.:.:.:.:.:.:.:.:.:.-.:.:.:.:.:.:.:.:.-.:.:.:.,.>.:.:.:.:.:.:.:.:.:.<.:.:.:.:.>.:.:.:.:.:.:.:.:.",
":.-.:.:.:.:.:.:.:.:.:.:.:.:.:.:.:.:.:.:.:.:.:.:.:.:.:.:.:.:.:.:.:.:.:.:.i.s.5.:.>.<.:.:.:.:.:.:.:.:."
};
