/* XPM */
static char *aW1hZ2VzLTEtcmVtb3ZlYmctcHJldmlldw__[] = {
/* columns rows colors chars-per-pixel */
"50 50 233 2 ",
"   c #4E3A26",
".  c #72401A",
"X  c #574126",
"o  c #594738",
"O  c #6A4628",
"+  c #754A28",
"@  c #7D572D",
"#  c #694D38",
"$  c #6B523C",
"%  c #76563A",
"&  c #6D7436",
"*  c #6B5647",
"=  c #725744",
"-  c #695F54",
";  c #70684E",
":  c #757946",
">  c #766558",
",  c #797657",
"<  c #766B67",
"1  c #7D7863",
"2  c #7D726D",
"3  c #786F70",
"4  c #7F7772",
"5  c #834F21",
"6  c #87572B",
"7  c #945D2C",
"8  c #995F2D",
"9  c #835A37",
"0  c #925E33",
"q  c #9C632C",
"w  c #98642D",
"e  c #8C673B",
"r  c #9A6834",
"t  c #967239",
"y  c #A5692E",
"u  c #A36C32",
"i  c #AA6E35",
"p  c #AC7334",
"a  c #A87539",
"s  c #B17535",
"d  c #B47939",
"f  c #B47B3B",
"g  c #BA7D3B",
"h  c #DC7C2D",
"j  c #C57E38",
"k  c #ED7A30",
"l  c #815E48",
"z  c #846246",
"x  c #866956",
"c  c #817A5B",
"v  c #A77C4A",
"b  c #B87E41",
"n  c #857666",
"m  c #847773",
"M  c #847975",
"N  c #867C79",
"B  c #8A7D78",
"V  c #917D73",
"C  c #79961F",
"Z  c #73892E",
"A  c #7C9828",
"S  c #7D8C39",
"D  c #7C8A47",
"F  c #85AC13",
"G  c #87AB1C",
"H  c #88AD19",
"J  c #8BB316",
"K  c #8DB817",
"L  c #8CB618",
"P  c #8DB41B",
"I  c #90B61F",
"U  c #849F2E",
"Y  c #818B30",
"T  c #839936",
"R  c #929C39",
"E  c #B48239",
"W  c #BB823E",
"Q  c #BB933B",
"!  c #8AA828",
"~  c #90AF2F",
"^  c #8EB322",
"/  c #8FB02B",
"(  c #91B525",
")  c #95B725",
"_  c #93B42D",
"`  c #8CA734",
"'  c #95AA3A",
"]  c #94B433",
"[  c #99B835",
"{  c #98B63C",
"}  c #A8A73D",
"|  c #B1A436",
" . c #A3B93A",
".. c #C8863B",
"X. c #CA9239",
"o. c #F58D35",
"O. c #EC9839",
"+. c #F69030",
"@. c #C4AE3A",
"#. c #F8AB33",
"$. c #9EC03E",
"%. c #A9C23B",
"&. c #FBC23A",
"*. c #8C8F4A",
"=. c #948B4C",
"-. c #889845",
";. c #909947",
":. c #858455",
">. c #949958",
",. c #AA8645",
"<. c #BB8745",
"1. c #BE904D",
"2. c #97AA49",
"3. c #9BB745",
"4. c #9CB54B",
"5. c #99A958",
"6. c #9DB157",
"7. c #ACAA49",
"8. c #A4B549",
"9. c #A1B353",
"0. c #A8B858",
"q. c #918A6B",
"w. c #959765",
"e. c #8A8274",
"r. c #8C827D",
"t. c #939378",
"y. c #A2906E",
"u. c #9BA764",
"i. c #9EA674",
"p. c #A1A866",
"a. c #A7B867",
"s. c #A3AA77",
"d. c #A1A47D",
"f. c #AAB376",
"g. c #C58B44",
"h. c #C68A46",
"j. c #D28F45",
"k. c #C29745",
"l. c #CB9344",
"z. c #CD954B",
"x. c #D49344",
"c. c #D79747",
"v. c #D39B4C",
"b. c #DB9D4B",
"n. c #C69354",
"m. c #D69C55",
"M. c #E59B45",
"N. c #EC9E4A",
"B. c #C7A548",
"V. c #D8A24A",
"C. c #DAA24E",
"Z. c #DBA554",
"A. c #DAA855",
"S. c #DCB05B",
"D. c #E8A949",
"F. c #F4B24A",
"G. c #E6A654",
"H. c #E3AC54",
"J. c #E3AC5A",
"K. c #E5B45B",
"L. c #E8B75B",
"P. c #E8B35C",
"I. c #E7B667",
"U. c #EABC63",
"Y. c #E8B76C",
"T. c #ABC346",
"R. c #AEC54D",
"E. c #B5C55F",
"W. c #B7CB64",
"Q. c #B8C477",
"!. c #F8C954",
"~. c #C2CD70",
"^. c #ECC368",
"/. c #F0C46B",
"(. c #8E8482",
"). c #958985",
"_. c #948B86",
"`. c #968D89",
"'. c #9A9887",
"]. c #9B918D",
"[. c #998F92",
"{. c #9C9391",
"}. c #A29686",
"|. c #A19796",
" X c #A39995",
".X c #A49C9A",
"XX c #A99E9B",
"oX c #A6A886",
"OX c #AEB78A",
"+X c #B3BB8A",
"@X c #AAA798",
"#X c #ABA29D",
"$X c #B0AC99",
"%X c #B4B39B",
"&X c #B7B998",
"*X c #ADA4A2",
"=X c #AEA9A5",
"-X c #AEAAA8",
";X c #B1A7A4",
":X c #B2AAA5",
">X c #B1A7A9",
",X c #B5ACAB",
"<X c #B8AEAE",
"1X c #B8B4A1",
"2X c #B6B1AD",
"3X c #BAB2AD",
"4X c #BDBBAC",
"5X c #B9AFB0",
"6X c #BCB3B2",
"7X c #B9B3B4",
"8X c #BFBCB2",
"9X c #C5BCAD",
"0X c #C4BBB6",
"qX c #C3BAB8",
"wX c #C4BCB9",
"eX c #B7C38A",
"rX c #CACF88",
"tX c #D7D28A",
"yX c #C6C4A2",
"uX c #C6C2BE",
"iX c #CAC1BB",
"pX c #CBC3C1",
"aX c #CDC9C6",
"sX c #CDC9CB",
"dX c #D0CAC5",
"fX c #D3C9C9",
"gX c #D4CCCA",
"hX c #D5D0CB",
"jX c #D7D2D1",
"kX c #DDD4D4",
"lX c #E1D6D7",
"zX c #E4DBDA",
"xX c #E8DEDD",
/* pixels */
"J J J J J J J J F F J J J J J J J J J F J J J J J J K J J J J J J J J P ~.W.J J J J J J J J J J J J ",
"J J J J J J J J J J J J J J J J J J J F P ] 3.2.2.5.5.6.3.{ ( J J K J J I I J K J J J J J J J J J J ",
"J J J J J J J J J J J J J J J J K P $.W.+X%X$X#X-X-X-X-X=X1X&XeX3.I J J K J J J J J J J J J J J J J ",
"J J J J P P J J J J J J J J J ^ 4.eX8X6X,X<X3X:X:X:X2X2X:X:X2X7X4X+X3.J J J K J J J J J J J J J P J ",
"J J J J P J J J J J J J F K { OX2X7XqX7X5X5X3X3X.X*X5X5X5X2X5X6X5X,X:Xa.( J J J J J J J J J J J J J ",
"J J J J J J J J J J J J ( a.@X=X<X7XqX7X6X<X<X,X>X5X5X5X6X5X5X5X5X,X,X=Xf.( J J K K J J J J J J J J ",
"J J J J J J J J J J J _ i.@X>X5X5X-X>X<X>X*X#X X|.|..XXX;X<X7X6X6X,X>X:X#Xi.^ J J J J J J J J J J J ",
"J J J J K K J R.%.J ] d.*X<X3X6X7X#X@X{.].B c x l l l x x e.#X6X5X3X<X2X2X@Xu.P J J J J J J J J J J ",
"J J _ ) J J ( tXtX4.oX-XfXfX6X-X#X Xr.> % 9 7 8 q 8 0 8 0 9 = n .X,X7X5X5X,X#X2.J J J J J J J J F J ",
"J J W. .J J P rXtXoX=X7XqXqX>X#X}.> $ 6 8 r r i i y i i y 8 7 + = {.-X5X5X5X:X'.( J J J K J J J K J ",
"J J ^ K J J J ^ i.*X2X7X6X:X*Xe.* O 7 q i i i s s i i s s s q 8 . # {.*X5X5X5X*X5.P J J K J J J J J ",
"J J J J P K J 6..X5X7X6X.X XB $ + 5 i s s s s f b i d b b g i y 5 + * }.*X6X5X:X$X[ J J J J J J J J ",
"J J J J J F ! '.,X7X6X<X{.2 $ q j i l.l.h.g.g g W a d <.h.b b u 6 w O n XX>X6X3X,X6.J J J J K J J J ",
"J J J J J J 5.=X5X6X6X,X`.$ 7 ..j.p v.b.b.G.Z.l.g.a E <.h.1.b p w y 6 = ].*X2X<X,Xi.P J K J J J J P ",
"K J J J J / oX<X6X6X5X.X> @ g x.b.g b.G.H.D.H.G.G.g.g.g.n.1.d s q p 8 % m #X;X6X7XoX/ K K J J J J J ",
"K J J J J ' #X6X6X6X,Xr.# u ..M.O.N.F.!.D.M.G.H.S.z.J.C.z.g.d d r p y 6 > XX*X7X5X#X2.J J J J J J J ",
"J J J J J 5.>X<X5XqX.X> 9 ..c.O.+.+.D.U.D.M.J.J.J.v.H.H.J.v.W <.u b i 6 * (.V ,X5X,X5.P J J J F J J ",
"J J J J P i.2X6XqX5X{.= r X.V.O.F.!.F.M.D.x.Y.P.J.v.J.H.H.L.A.h.v b a 0 * m |.#XqX,Xs.P J J F F J J ",
"J J J K P oX2X<X5X5XB % p x.M.+.&.!.#.O.....Y.^.I.v.K.H.P.J.S.m.n.1.s 7 # B >X<X<X<Xd.J J J J J J J ",
"J J P F J s.3X6XqX<XB % g X.N.+.#.#.#.O.j <.Y.^.P.C.U.J.P.I.G.m.n.z.d w $ V *X>X:X,Xd.P J J J J J J ",
"J J J F F s.3X6X,X<XB 9 g x.N.M.+.+.o.h j h.Y.^.I.Z.U.K.J.J.H.z.z.V.W r $ V .X,X9X,XoXP J J J J J J ",
"J J J J J u.5X*XXX9X}.9 W b.G.G.k k h h M.g I.^.U.Z.U.L.J.H.J.l.V.G.z.t = r.XX<X9X,XOX^ P P J K J J ",
"J J J J K 2.:X,X4XqX#Xx d b.G.J.+.F.L.D.M.s S./.U.Z.U.L.P.H.J.l.B.B.7.s x `.#X9X3X7XeX] _ P J K J J ",
"J J J H K ] @X6XyXqX1Xy.a z.J.I.D.D.Z.M...u A.^.S.Z.U.P.U.K.P.k.} | | 7.c  X#X9X6X%X6.^ J J J J J J ",
"J J J H J P w.2XrX&Xf.5.} X.V.H.V.b.h.C.V.1.K.L.S.A.U.K.S.K.H.B.k.l.Q } p.@X9X9X&Xa.] J J J J J J J ",
"J J J / ` G Z 1 Q.f.d.oX9.| W v.C.G.l.J.J.L.L.L.A.Z.L.K.J.H.A.k.l.z.E =.0.OX%XrXp.w.) J P J J J J J ",
"J J F G / ! A ; 0.>.].9Xa.7.v <.V.Z.l.Z.H.L.L.L.V.V.U.K.K.H.Z.E l.X.z w.8.f.t.0.=.D ! ! ! J J J J J ",
"J J J J ] ^ A & 7.>.n w.8.0.}.,.Q z.X.A.D.H.L.H.V.z.K.A.Z.C.l.E k.r >.5.7.>.c  .>.-.! H ! ( J J P J ",
"J J J J ` ` A Z -.7.n >.7.2.>.q.x e r <.z.A.A.A.z.g.V.V.l.g.f 6 @ ; :.;. .;.=.%.8.U F P ! ^ J J J J ",
"J J J G G ] -.A T 8.; 5.[ 2.q.4 N n = % 9 v a a q w t r 0 6 O o , e.n *. .} R  . .P G H ` J J J J J ",
"J J K J K / 3.A S T.: R R R , < < 3 3 - o o o o X X X       o - > M n , R %.` %._ C Z Z ] J J J J J ",
"J J K J J / ` S D T & & Y c M (.[.@X=X=X,X,X,X<X:X:X=X*X.X'._.'.'._.2 ; e Y & T Z Z A 2.{ P J J J J ",
"J J $.T.^ / Z : t.@X%XqXuXiXhXgXfXkXlXlXkXkXlXlXlXkXkXkXkXwXfXgXhXdXaXuX4X&XoXt.D :.` ~ P K J J J J ",
"J ^ rXrX` A : '.wXsXfXfXaXdXgXlXkXlXzXzXlXzXxXxXxXxXxXxXxXzXlXlXlXgXaXgXhXsXaXpXuX1X6.P J P J J J J ",
"J P W.W.P 6.$X4XpXaXsXwXqXfXgXgXkXpXiXwXwX0X0X0X0X0X0X0XwXpXpXfXgXgX:XhXkXkXjXdXpX7X@X3.J J J J J J ",
"K K J K 3.$X=X=X=X*X#X_.:X*X#X;X0X;X:X,X,X<X<X<X9X:X,X9X,X;X;XXX@X@X`.,X*X#X:X6X6X3X-X$X3.J J J J J ",
"J J J P q.M 4 (.}.|.XXXX#X;X:X:X<X,X<X5X5X6X6X6X5X5X5X5XwX<X<X<X:X:X;X#XXX X).r.4 3 r._.t.^ K J J J ",
"J J J J -.< `.{..XXXXXXX#X=X#X:X:X:X<X3X6X6X<X<X<X<X<X5X<X>X>X<X3X#X;X#X#X#XXXXX{.< < < , C J J J J ",
"J J J J ! D {.XX.X.XXX|.XX#X#X:X;X;X,X<X5X5X:X<X<X<X>X>X>X>X>X;X#X#X#X#XXX;X#X X.X{.'.M S A J J J J ",
"J J P J J D [.{..X.XXXXXXX;X#X#X#X;X;X;X;X;X:X:X;X;X;X;X>X<X;X;X#X#X#X#XXX;X;X.X{.{. Xe.! J J J J J ",
"J J J J J ~ e.].|.|.{.{.[.[.).`._._.`._._._.`.`.`.).`.). X#X].{.{.{. X X.X#X.X X*X.X@Xw.J J J J J J ",
"J J J J J 3.e.3 N N e.(.`.[.{.{..XXX#X#X#X#X#X#X#XXX#X X X].].)._.r.M 4 M N r.(.`._.r.-.J J J J J J ",
"J J J J 3.&X#X.X X2.' 6.f.OX&X3X%X6X6X9X0X6X6X6X6X0X0XqXqX6X6X6X3X2X>X=X{.{.(.M 3 3 1 ! J J K J J P ",
"F F J J ( { a.a.] J J J P P ( ] 3.4.6.0.a.a.OX&X4X9X9X&X+X&X&X&X4X8X8X8X4X8X8X7X:X'.-.J J J J J J J ",
"F J K K J J K J J J J J J J J J J J J J J J J I _  .@.^ ( ( P ( ] 4.4.{ ] { 4.a.0.] J ^ ^ K K J J J ",
"J J K J J F J J J J F J J J K J J J J J J F F J J J F J F J K J J F J K J J J J J J J W.W.P J J J J ",
"J J J J J F F J J J J J J K J K J J J J J F F J J J J J F J J J J J K J K J J J J J F  .R.P J J J J ",
"P J F J J J P J J J J J J J J K J J J J J J J J J J J J J J K J J J J J J J J J J J J J J J J J J J ",
"J J F F J J J J J J J J J J J P J J J J J J J J J P J J J J J J K K J J P J J J K J J J J J J J J J ",
"J J J J J J F J J J J J J J J J J J J J J J J J J J J J J J J J J J J J W.T.J J K J J J J J J J P F "
};
