/* XPM */
static char *_9392749021f4eb6c37b8c3859aed7b3bmuTRpXwcgweE79u[] = {
/* columns rows colors chars-per-pixel */
"50 50 144 2 ",
"   c #7C9E0B",
".  c #7EA500",
"X  c #7EA60C",
"o  c #7FAF0D",
"O  c #7BB70F",
"+  c #7EA410",
"@  c #7BB910",
"#  c #81A704",
"$  c #84AC04",
"%  c #89AF00",
"&  c #81A50C",
"*  c #86AD0D",
"=  c #89AE0D",
"-  c #91AF0F",
";  c #87B305",
":  c #8BB305",
">  c #85B20D",
",  c #8AB20D",
"<  c #8CB80E",
"1  c #90B600",
"2  c #93BB05",
"3  c #91B40F",
"4  c #93B90A",
"5  c #83A512",
"6  c #86AC13",
"7  c #89AE13",
"8  c #83A51B",
"9  c #86AB1C",
"0  c #8AAC1A",
"q  c #99A712",
"w  c #93AE11",
"e  c #9AAC15",
"r  c #9CAE1A",
"t  c #85B411",
"y  c #8BB312",
"u  c #85B914",
"i  c #8DB813",
"p  c #8DB31A",
"a  c #8EB91B",
"s  c #91B414",
"d  c #9CB115",
"f  c #92BA14",
"g  c #9ABF16",
"h  c #91B31E",
"j  c #93B11D",
"k  c #90B41E",
"l  c #91B61A",
"z  c #9EB419",
"x  c #91B918",
"c  c #93B81A",
"v  c #93B81B",
"b  c #92BA1B",
"n  c #95BD1C",
"m  c #97BF1E",
"M  c #93BA1B",
"N  c #A1AB17",
"B  c #A6AF18",
"V  c #A8AA1B",
"C  c #ABAD1E",
"Z  c #A1B017",
"A  c #A6B31B",
"S  c #8BAE20",
"D  c #8DAF25",
"F  c #8DAC23",
"G  c #8CAC2A",
"H  c #8EB123",
"J  c #8FB222",
"K  c #8DB223",
"L  c #8FB22C",
"P  c #93B624",
"I  c #92B523",
"U  c #97BB27",
"Y  c #95B824",
"T  c #99BE23",
"R  c #9ABE20",
"E  c #95B428",
"W  c #94B729",
"Q  c #93B32C",
"!  c #95B72C",
"~  c #94B629",
"^  c #95B82A",
"/  c #9DBD2E",
"(  c #9ABE2C",
")  c #97B436",
"_  c #93B032",
"`  c #9CBB32",
"'  c #9CBC33",
"]  c #98B937",
"[  c #9CBD33",
"{  c #98B53E",
"}  c #B3AC20",
"|  c #A4B322",
" . c #ABB022",
".. c #ABB224",
"X. c #AEB720",
"o. c #B0B221",
"O. c #B8B623",
"+. c #BCB328",
"@. c #BDB72D",
"#. c #9CC423",
"$. c #99C122",
"%. c #9CC02A",
"&. c #9EC131",
"*. c #9EC038",
"=. c #A0C132",
"-. c #A1C533",
";. c #A0C23A",
":. c #A6C93B",
">. c #A8C93C",
",. c #B9C034",
"<. c #94AE40",
"1. c #A3BF44",
"2. c #A1BA54",
"3. c #A1C240",
"4. c #A4C141",
"5. c #A4C540",
"6. c #A4C541",
"7. c #AAC944",
"8. c #A4C049",
"9. c #AAC749",
"0. c #A7CA48",
"q. c #ACCC4D",
"w. c #B0CD4F",
"e. c #B0D343",
"r. c #B1D34B",
"t. c #B1D04E",
"y. c #B2D34B",
"u. c #A7C154",
"i. c #A8C05E",
"p. c #B3CE5B",
"a. c #B8D555",
"s. c #B9D954",
"d. c #B4D15D",
"f. c #B8D55F",
"g. c #BCDA5C",
"h. c #BCDC61",
"j. c #BCD965",
"k. c #C2DD72",
"l. c #C2DC79",
"z. c #C5E66D",
"x. c #CCE877",
"c. c #D0E974",
"v. c #CEE980",
"b. c #D4EA97",
/* pixels */
"y = y > 7 , y y & * y i i p y = > 3 p 6 6 j l y y y y y y y y y s p J *.r.e.R # y i y y y y y y y y ",
"y y y y y y y y y y , y y y y y , f l 7 6 p s y s y y y y y y s , y 5 J ^ U s = y y y y y , y y y y ",
"y y y y y y y y i y y y , = y y 3 c c y , y , 4 y y y t y y y y 3 , 7 9 5 y y f y y y y y y y t y y ",
"t = y y a y y y y y y y y t y y = y y s , y 3 3 y y y y 7 y i y , y s l p p , 3 y y y y y y y y t y ",
"y y y y y y y y , y y y i y y y p = = s f s y = y t y , > , y y , , 3 s s , , , y y y y y 7 y y y y ",
"y y y y y , > = y y y y a x y y c p y , s s 0 p y y y y y y y y s y , , , y 3 , y y y y y , y y y y ",
"a y t = y y y x y y y p y y y y s s , s p 0 ! 5.y y y y y y y i s p s , y s p l y t y y y y y y y y ",
"y , * = y x R #.n x y , = y y i 7 , y y * 9 3.h.y y y y y y y p * 7 l c p 7 7 p y y y y y y y y y = ",
": 5 9.E # 3 ) b.c.1.8 y f > > a s = 6 7 0 p 7 * d s 7 u u t 0 j y i x x y t y i , y y i y y i y y y ",
"g 0 t.=.4 f Q l.a./ 6 3 f , > a = = = = p s c c i > u u p w N ..y y y s y y y y y y y y y p i y y y ",
", 5 ' I % %   { | j 7 = 3 y p t y y y , = = , 3 @ O O u 7 e  .+.p y > y y y y = t 7 y y y y y y y y ",
"s 5 P s < 4 # J i , , 3 < y p p p s s , 4 3 , = > o o u 7 w N ..i y = 7 y y y = y , y y y y y y y y ",
"x 7 p i i f > y = y < > , s l p 7 y 3 s f g s y q q w l i 7 y s y 7 = > y p y y = y y y y y y y y y ",
"p t * $ ; > * $ < i y > = s s s 0 7 , > > 7 6 9 } V r v p u t u y y , y y i y y t y y y y y y y y y ",
"p i < y p p a > a u p p y y y s 6 y 3 $ X & D ] @. .r 7 i i t y > y y y y y y x = y y y y y i y y t ",
"= , ; y p 9 a t a t 6 p c w = d & y f 3 y K w.z.,.| 7 * 7 , y 3 y y x y y , y s t y y y y y p y y y ",
"i i i y s s s s y y y y y y y y = y y y 6 K 0.z.n i * * > y y , y y y y y y i p = y t 7 > 7 = = y y ",
"i y y y y s 7 y y y y y y y y y s y i x t 5 S L p t * = y a x y p i y , > y y y y , y y y , > = y y ",
"7 y y y t y y t y y y y y y y y y p y n M i 6 + y = = 7 i x x y y y y y y y y y y y y y y y 7 > y y ",
"7 t y > t t u u y i y y y y x y i y , , f M M g y = t y y y y y y y y y y y y y y y y y y y y y y y ",
"y y > > , y t i t 7 y y y y y y y p y t = , 4 , t y y y x y y y y i y y y y y p , y y y i p y y y y ",
"y > , 7 y y s s y y y y y y y y * y p i 7 , > > * , y y l i x y y y y y y y y y > y = y y , y y , y ",
"u y y = - w z Z y y y y y y y y $ y a p p p a i = = y y y p y s y y y , y y y y = t 7 y y y > , t y ",
"u y y 7 w d Z A y y y y y , y > < f y & 5 p a y y y y y , t y y y y y y y y y y = = > y y y y 7 y y ",
"= = t t s z X.O.y y , y y y y y y y y y , y t y x y 0 J ' :.( 6 t M y = y p 7 w s c 4 3 3 , 7 p y y ",
"s y t t y s e A y y y y y y y y y y y y y y 7 y , l p J ^ ( Y 7 t p y i 3 : % 3 * * y , , 3 y y y y ",
"s s t > t > w w y y y y y y y y , y y y y y y y = s s s 7 p s p p 0 i y < % % 1 [ ( l p s y , 7 y y ",
"s = > t > > y s y y y t t 7 y y y y y y y y y y $ y y y = = , y i i p * # s l * y.>.U 7 , y s 7 y y ",
", y y > t u i u y y y y y 7 y y y y y y y y y y s y , , , , , , : i i X 8 9.j.<.;.E p 6 y s s p y y ",
"y y y y t y y t y y y y y y t y y t y y y y y y v s , , s 3 , s ; ; i 9 G j.v.2.9 6 = p f f y = y y ",
"y i y s y y y > , y y y y y , y y y y y y y y y P p 7 s f , s s , $ i I S 7.g.3.7 = s f f s y 7 y y ",
"t i y y w 3 7 y y y y y y y y y y y y y y y y y J 0 s f f , p v n X a R # * z % = = > , , , p l > y ",
"4 S 2.2.0 : g 0 p y y y y y y y y y y y y y y y 0 X > f , : 3 - y y y y y y x y y y y i p , y y y y ",
"$ I k.x.| % f 6 y y y y y y y y y y y t y y , y u 7 i f 3 f m c y y y y y p y y y y y y y y y y y y ",
"% U f.g.P % f p y y , y y y y y 7 , y y y y y y t i x , & j v 8 y y y y t = y > y i s i y y i p y y ",
"g 0 G L * , f p y y y y y y y , y y y y y y y y p i y = & E ` F y y y y y y = , y y y y y y y y t y ",
", & 5 K a n i ; y y y y y y y y y y y y y y y y t y p p p :.s.w.y , y y y y y y , 7 y y y y , y y y ",
", y i p p p y , y y y y y y y y y y y y y y y , y y i y p =.w.9.= y y y y y y y y y , y y y t y y y ",
"y f < > * 6 > i y y y y y > y y y , y y y y y y i * t y * 7 E F y y y y y y i p y y y y y y y y , y ",
"> i : < a K > ; y y y y y y y y y y y y y y y p p * y f 7 7 0 0 y y x y y y y y y y y y y y y y y y ",
"> y p i y y * * ; = , y 6 + p -.6.K 6 , , = y v u y 3 7 t t y w y y t y y y y y p 6 7 s p 7 7 p y y ",
"= y , y y y t = , * , a p 6 P -.5.E 7 y 3 , 7 l > y q 3 t t y w y y y y y y y y y s f 3 3 x s y y y ",
"= t y y y y y = , ; , l p t a %.[ J 7 , 3 = = p y d z w y > = s y y y y y y y y : 4 g > : f 4 : y y ",
"= 7 y y y y y y i , > y p 7 t p J 5 * , < , = 7 s z A z 7 O y s y y , y y y y y , y y = = , s , y y ",
"> 7 > y y y , y i , , y y y = t p 7 = s s s p s w z A d y > t s y y y y y y y y p 7 p ( &.p 7 p y y ",
"y = y y 7 y y y , > , y y i x y s p y s y , = = s e z s > > t s y y , 7 y y y , l 9 ! r.r.E 0 l y y ",
"y y , y = t y y , y , , , y f f , 3 s y 7 = * * > y - w > t , w y y y y y y y y y y Y :.:.Y y y y y ",
"y y y t y y > , t , y > $ ; , , < s s y p y s s u y - y t t p w y y y y y y y , 4 , 7 7 7 7 , 4 y y ",
"7 , = y y y y y y y y y y y y y y y y y , y y t y y y y y y > y > a 2 . 8._ . i l y i y y y y y y y ",
"= y t y y y y y 7 t , y y y y y y y y y y y y y y y y y y y y y u K 2 % d.3.% a x y p y y y y y y y "
};
