/* XPM */
static char *result[] = {
/* columns rows colors chars-per-pixel */
"50 50 199 2 ",
"   c #7A7E1F",
".  c #714E34",
"X  c #735933",
"o  c #765A37",
"O  c #7C5E3B",
"+  c #746528",
"@  c #766D2C",
"#  c #796D2C",
"$  c #797626",
"%  c #7A7C23",
"&  c #78722A",
"*  c #7A6434",
"=  c #7A6A32",
"-  c #71643C",
";  c #79673B",
":  c #784846",
">  c #7E5547",
",  c #7D5C41",
"<  c #78555D",
"1  c #6F6349",
"2  c #716542",
"3  c #7E6841",
"4  c #70684B",
"5  c #6C6656",
"6  c #7C5D69",
"7  c #78636C",
"8  c #716E6E",
"9  c #6F716D",
"0  c #807833",
"q  c #81544C",
"w  c #815A48",
"e  c #83495A",
"r  c #885757",
"t  c #865A54",
"y  c #816846",
"u  c #847041",
"i  c #8A6B58",
"p  c #8D705E",
"a  c #A0775F",
"s  c #8C4D65",
"d  c #914E6D",
"f  c #8C5362",
"g  c #85586B",
"h  c #915C67",
"j  c #92546C",
"k  c #965673",
"l  c #985476",
"z  c #9A5A76",
"x  c #9A5878",
"c  c #9D5B7A",
"v  c #A15D7E",
"b  c #907261",
"n  c #9B6379",
"m  c #967073",
"M  c #A2607F",
"N  c #7C841E",
"B  c #7E8D1C",
"V  c #7F9219",
"C  c #7C8221",
"Z  c #7E8820",
"A  c #808E1C",
"S  c #819E16",
"D  c #81941C",
"F  c #839C1A",
"G  c #84A416",
"H  c #88A716",
"J  c #85AC13",
"K  c #88AD16",
"L  c #85A219",
"P  c #89AC18",
"I  c #87B013",
"U  c #8BB316",
"Y  c #8DB917",
"T  c #8DB61B",
"R  c #8EB918",
"E  c #91B416",
"W  c #98B017",
"Q  c #90B61E",
"!  c #9BB11C",
"~  c #A8AD1B",
"^  c #A0B11E",
"/  c #8C823C",
"(  c #8EAA28",
")  c #93B924",
"_  c #95B928",
"`  c #95BA2B",
"'  c #9BBD32",
"]  c #9EB63C",
"[  c #B9AD26",
"{  c #B5B129",
"}  c #CAAD33",
"|  c #D4AB36",
" . c #A0C03E",
".. c #A1817E",
"X. c #ACC753",
"o. c #B8CB5E",
"O. c #B7C965",
"+. c #B9CC66",
"@. c #C3CC6D",
"#. c #C6D17A",
"$. c #6E7D84",
"%. c #9E5F81",
"&. c #A75E8B",
"*. c #A56284",
"=. c #A56C84",
"-. c #A9658A",
";. c #AC688D",
":. c #AF6992",
">. c #B26C94",
",. c #B1649B",
"<. c #B66E9A",
"1. c #B7719B",
"2. c #B667A2",
"3. c #BE6CAB",
"4. c #BC73A3",
"5. c #BE75A6",
"6. c #C477AC",
"7. c #C378AB",
"8. c #C26DB1",
"9. c #CA7DB4",
"0. c #CE7BBC",
"q. c #CC75C0",
"w. c #D37AC8",
"e. c #D57BCB",
"r. c #DA7DD4",
"t. c #6B858C",
"y. c #718284",
"u. c #6B8C94",
"i. c #72969E",
"p. c #6B9AA7",
"a. c #6EA6B3",
"s. c #72AAB5",
"d. c #74A9B4",
"f. c #6EBAC8",
"g. c #76B7C4",
"h. c #6CC4D5",
"j. c #77C5D6",
"k. c #74CBDC",
"l. c #6BD5E5",
"z. c #75D7EA",
"x. c #78D7E9",
"c. c #77E2F7",
"v. c #78E6FE",
"b. c #79E9FF",
"n. c #A48584",
"m. c #B2959A",
"M. c #BD86A6",
"N. c #B99DA3",
"B. c #CB83B7",
"V. c #CD80B9",
"C. c #D282BD",
"Z. c #CA95B7",
"A. c #CDA8BD",
"S. c #CAB3BD",
"D. c #C8D485",
"F. c #D0D386",
"G. c #DCD28C",
"H. c #D684C4",
"J. c #DC87CD",
"K. c #DF8CD1",
"L. c #E28ED3",
"P. c #E487DB",
"I. c #E591D7",
"U. c #E697D8",
"Y. c #E994DC",
"T. c #D6A8C7",
"R. c #D3BAC6",
"E. c #D6BEC9",
"W. c #DDB1D2",
"Q. c #E7A3DE",
"!. c #E586E1",
"~. c #EA8BE6",
"^. c #EC8EEA",
"/. c #EE96E6",
"(. c #F198E6",
"). c #F294EC",
"_. c #F59BEC",
"`. c #F79BF2",
"'. c #FD9FF5",
"]. c #FDA1F6",
"[. c #FCACF5",
"{. c #FFA2F9",
"}. c #F9BCF4",
"|. c #FCB9F8",
" X c #D6C0C9",
".X c #DACBD4",
"XX c #DFD1DB",
"oX c #E4C2DB",
"OX c #EBC6E4",
"+X c #F3C7EE",
"@X c #E9D6E3",
"#X c #E9D8E5",
"$X c #FCC6F8",
"%X c #FCD8FA",
"&X c #EBE1E8",
"*X c #F7E6F4",
"=X c #FDE4FB",
"-X c #F9EAF8",
";X c #FFF3FF",
/* pixels */
"U U U U U U U U J J U U U U U U U U U K U U U U U U U U U K Y Y U U U E #.+.U U U U U U U U U U U U ",
"U U U U U U U U U U U U U U U U U U Y J J U U U U U U U U U U K U U U U ) Q U U U U U U U U U U U U ",
"U U U U U U U U U U U U U U U U U Y Y U U U U U U U U U U U U U U U U U U U Y U U U U U U U U U U U ",
"U U U U Y T K U U U U U U U U U K U U U U U U U U U K J U U U U U U U U U U U U U U U U U U U U U U ",
"U U U U Y U U U U U U U U U T E Y K U Y U U Y U U U U U J U U Y Y U U U U U U U U U U U U U U U U U ",
"K U U U U U U U U U U U U U L % # * * & N L Y Y U U U U K U U U Y J U K U U U U U Y U U U U U U U U ",
"U U U U Y U U K U U U U P $ t n.A.W.T.B.;.t % ] Q U U U U U U U U U U U U U U U U U U U U Y U U U U ",
"U U U U T Y U X. .T R L * 1.OX=X%X$X|.{.].Y.-.i ( U U U K U U U U U U U U U U U U U U U U U U U U U ",
"U U _ ) U U _ G.G.' F X 4.[.|.].'.'.'.'.'.].].4.* H Y Y U U U I U Y U Y Y U U U U U U U U U U U U P ",
"U U +.] U U T D.D.& r j j c ;.9.L.(.'.{.{.'.].'.;.$ U U U U W [ E U Y U U U U U U U U U Y U U U U U ",
"U U Q T U U U T F h _.+XoXT.M.=.k j v >.9.L.(.].(.t L U U U ! | W U U U U U U U U U U U Y U U U U U ",
"U U U Y U U U Y C :.{.[.}.$X%X%X+XU.C.1.*.k k v <.j   U U U Y R U U J J U U U G J U U U U U U U U U ",
"U U U U U U U J & 9.{.'.'.'.].[.[.[.].].]._.I.C.1.M > F Y U U Y U K J U U U U U U U U U U U Y U U U ",
"U U U U U J J H ; K.'.'.'.'.'.'.].].'.].'.'.'.{.{.].0.= U U U U U U U U U U U Y U U U Y Y U U U U T ",
"U U U U U Y Y K > e.`.`.'.'.'.'.'.'.'.'.].'.'.'.'.{.J.* K U U U U U U U U U U U U U U U U U U U U U ",
"U U U U U Y K U % j 2.0.P.).'.'.].'.].].'.'.'.'.'.{.6.& Y U U U U U U U U U U U Y J J U U U U U U U ",
"U U U U U U U U U + s x j k &.3.H.Y.).'.].].'.].'.'.-.N Y K U U U R Y U U U U U T J U U U U J U U U ",
"U U U U U U U U U B z /.Y.H.5.-.k d l &.3.w.P.^.^.P.r F Y Y U U Y U U U J K U U U U U U U U J K U U ",
"U U Y U K U U U U P * 8.).'.{.{._.Y.H.7.*.k d l &.x = U U Y Y U Y U U U J I U U P U U U U U U J U U ",
"U U Y K U U U U U U D q q.~.).'.].].].'.'._.L.-.. Z H T U U U U U U U U U Y L @ - % K U U U U U K U ",
"U U K J K U U Y U U U V t 3.P.~.^.).).^.^.!.3.w D Y U U U U U U U U U U Y K * d.k.9 A Y K U U U U U ",
"U U U U U U U T U U U U V @ x 3.w.r.r.w.3.k * F J J U U U U Y U J F D D L % y.v.b.d.+ L U U U U U U ",
"U U U U U U U U U U U U Y V X m h s r , # V K U J U U U U T L $ O h h : r : s.b.b.x.i.2 F Y Y Y U U ",
"U U U U U U ~ [ T U U U Y V i XX.Xi V G I Y U Y Y U U U F # o n W.}.5.-._.7.6 g.b.b.b.d.# U U U U U ",
"U U U U U U { } E U U U Y D m &X.Xy J I I U I Y Y U K C r B..X#X=X$X-.7.{.].C.7 x.b.b.k.2 K U U U U ",
"U U U U U U E U U U K U U   m.&XS.# U U U U U I U H + f Q.=X XZ.].'.c 6.{.'.].>.t.v.b.j.- U U U U U ",
"U U K H U U U U U U U U J * S.-XN.% U U U U I E P # e -.|.}.M 7.[.'.5.j I.].{.Y.g k.c.k.5 D U U U U ",
"K U U U U U Y U U U U U J 0 oX;Xn.B Y U U U Y E A n ;.1.].'.z B.{.]._.:.f <.(.'.n a.l.l.p.& U U T U ",
"U U U U U U U Y U U U U H b *X-Xb F Y K A # $ 0 X B.*.9.].].4.j I.{.{.].K.z :.`.&.$.h.h.$.C T U Y U ",
"U U U U U U U U U U K Y D m ;X#Xy K Y N 8 g.d.i.< L.z B.{.]._.<.f >./.].{.V.z ~.&.X 2 1 & H U U U U ",
"U U U U U U U U U U U Y % N.;X X# U U @ g.b.b.c.8 I.4.j I.].].].L.x :.].{.9.c e.> V J P U U U U U U ",
"U U U U U U U U J U U U # E.;XN.% U U C $.c.v.v.$.9.`.>.f :.(.].{.B.x '.{.6.d x C I U I K U U U U U ",
"U U ` X.U U U U J U U H 3 @X;Xn.B U U H - k.v.b.s.%.].].I.c :.].].7.&.).~.8.. 0 K U U U U U U U U U ",
"U T F.G.' U U U U U U G p *X*Xp F R U J 4 x.v.v.z.7 H.].{.9.v ].'.5.k w.&.w A P U U U U U U U U U U ",
"U R O.O.T U U R U U U B n.;X@X3 J R R K - j.b.v.b.d.g e.^.2.&.^.P.6.: q % S U U U U U U K U U Y U U ",
"U Y U U U U U U U U Y % N.;XR.@ U U U U Z 9 j.v.c.l.u.e ,.%.s 2.k w 0 L U J U U E Y U U U U Y U U U ",
"U U U U U U R U U U U # E.;XN.% U U U U I B , f.l.l.t.@ % u a / D K U U U U U U U Y U U U U U U U U ",
"U U U U U U U U U U J y #X;X..A U U U U U U $ u.l.s.2 P U ` +.' U U U U U U U U U U U U U J K U U U ",
"U U U U U U U U U U F b *X*Xp G U U U U U U L - 9 2 V U U U U I U U U U U U U K U U U U U J U U U U ",
"U U U U U U U U U Y N n.;X@X; K U U U U R U T H V H U U U U U U U Y Y U Y U U U U U U U U U U U U U ",
"U U U U U U I J U U % Z.;XR.$ ` ' U U U U U U U U U U U U U U U U T U U E U U U U U Y U U U U U K U ",
"U U U U U U I J K U ;  X;XN.N o.@.U U U U U U U U Y U U U J I U U U U U U U U U U U U U U U U U U U ",
"U U U U U U U U U K y #X;Xm V ) _ J K U U U U U U Y U U U J I U U U U U U U U U U U U U U U Y U U U ",
"G J U U U U U U Y G , m.S.i G U U J U U U U U U U ~ | ! U U U U U U U U U U U U U U U U U U U U U U ",
"I U U Y U U Y U U U F % & % U U U U U U U U U U U ^ } W U U U U H U U U U U U U U U Y Q Q U U U U U ",
"U U U U U J U U U U U U T U U T U U U U U J J U U U U I H U U U U U U U U U U U U Y J O.@.Y U U U U ",
"U U U U U J J U U U U U U U Y Y U U U U U J J U U U U U J U U U U U U U U U U U U U J ] X.U U U U U ",
"U U U U U U U U U U U U U U U U U U U U U Y U U U U U U U U U U U U U U U K U U U U U U U U U U U U ",
"Y I J I U U U U U U U U U U K U U U U U U U U U U Y T U U U U U U U U U T U U U U U U U U U U U U U ",
"U U I U U U U U U U U U U U U U U U U U U U U U U U U U U U U U U Y U U +.X.U U Y Y U U U U U U U U "
};
